<svg id="Layer_1" data-name="Layer 1" xmlns="http://www.w3.org/2000/svg" viewBox="0 0 523.14 109.94"><defs><style>.cls-1{fill:#c52087;}</style></defs><title>SmartLogo</title><path class="cls-1" d="M165.75,100.65a1.48,1.48,0,0,0-1.15-1.35l-6.75-19.36a3.57,3.57,0,0,0-3.64-6.14L139.82,58.62a1.62,1.62,0,0,0-2.76-1.6l-20.2-4.1a1.73,1.73,0,0,0-3.36-.15l-5,.59a1.5,1.5,0,0,0-2.75.63L91.65,58.92A2.82,2.82,0,0,0,87,62l-8.8,8.72a1.78,1.78,0,0,0-.51-.05A1.8,1.8,0,0,0,76,72.58a1.78,1.78,0,0,0,.12.53l-4.4,5.83H71.6a1.5,1.5,0,0,0-1,2.53L66,99.91a1.74,1.74,0,0,0,.19,3.4L74.59,126a2.85,2.85,0,0,0,2.64,4.28l.27,0,1,1.45a1.4,1.4,0,0,0,1.82,1.77L95,145.09a1.41,1.41,0,0,0,2.52,1l20.08,2.56a1.41,1.41,0,0,0,2.35-.18l3.63-.93a4.22,4.22,0,0,0,8-2,4.17,4.17,0,0,0-.09-.56l10.73-4.27a1.4,1.4,0,0,0,2.35-1.45l9-9.5a1.68,1.68,0,0,0,.51.05,1.69,1.69,0,0,0,1.4-2.49l2.91-4.67h.11a1.35,1.35,0,0,0,.91-2.26l5-18.21A1.48,1.48,0,0,0,165.75,100.65Zm-2.8-.92-.66,0-7.26.47a3.13,3.13,0,0,0-1.59-1.77l2.7-18h0l.1,0ZM152.7,127.1l-15.11-.9a2.65,2.65,0,0,0-.46-.86l14-21.05.36.09,1.63,22.31A1.69,1.69,0,0,0,152.7,127.1Zm-25.5,14.47a4.19,4.19,0,0,0-2.75,1.27l-18.17-10.48a3.31,3.31,0,0,0,.1-.49l26.25-3.76a2.67,2.67,0,0,0,.68.92l-5,12.63A4.19,4.19,0,0,0,127.2,141.57ZM80.12,130.7,80,130.3l.64.62A1.4,1.4,0,0,0,80.12,130.7ZM76,124.76l-.1-.26.12.26ZM67.8,100.48l4.57-11.9L77.33,75.7,80.7,97.95a3.63,3.63,0,0,0-2,2.66L68,100.72A1.74,1.74,0,0,0,67.8,100.48ZM79.33,73.35l16.74,1a3.11,3.11,0,0,0,.75,1.35l-13.48,22a3.6,3.6,0,0,0-1-.15L78.78,73.94A1.8,1.8,0,0,0,79.33,73.35Zm27.48-11.77h.12a1.73,1.73,0,0,0,1.13-.52l21,8-16.81,2.14L102,72.47a3.12,3.12,0,0,0-.71-1.09Zm31.61-1.93h0L153,74.95h0l-18.44-5.78a2,2,0,0,0-.41-1l4.25-8.56Zm16,20.54-2.7,18a3.17,3.17,0,0,0-.47.08l-16.83-27.3,17.92,5.61a3.47,3.47,0,0,0,2.09,3.63Zm-5.39,20.2-25-.32A6.79,6.79,0,0,0,121,95.13l4-8.35,7.43-15.33h.14l.1,0,17.06,27.68A3.13,3.13,0,0,0,149.07,100.38Zm-16.6,26-26.34,3.77a3.35,3.35,0,0,0-.94-1.28l10.06-21.6a6.76,6.76,0,0,0,5.18-.42L133,125.35A2.66,2.66,0,0,0,132.47,126.42Zm-47.68-22.6a3.61,3.61,0,0,0,1-1.6l24.84-.42a6.8,6.8,0,0,0,3.12,4.8l-10.06,21.59a3,3,0,0,0-1.76.15Zm47.79-36.36h-.16a2,2,0,0,0-1.27.56l-15.41-5.86L111,60.34,136.76,59Zm-30.39,6.71,26.67-3.4,2-.25a2,2,0,0,0,.13.19L119.51,94.38a6.79,6.79,0,0,0-5.25.37l-12.84-19A3.13,3.13,0,0,0,102.19,74.17Zm10.66,21.54a6.8,6.8,0,0,0-2.29,4.39l-24.74.41a3.6,3.6,0,0,0-1-1.89l13.47-22a2.94,2.94,0,0,0,1.71,0ZM68,102.42l10.85-.11a3.61,3.61,0,0,0,1.91,2.17l-3.13,19.77-9.75-21.63A1.72,1.72,0,0,0,68,102.42Zm11.16,23,3.26-20.62h.09a3.61,3.61,0,0,0,.82-.15l17.17,24.62a3.37,3.37,0,0,0-.5.8l-20.17-3.46A2.83,2.83,0,0,0,79.15,125.44Zm1.42,3,19.13,3.28a3.35,3.35,0,0,0,1.16,2.27l-4.72,9.61Zm20.32,9.35,1.5-3.06a3.24,3.24,0,0,0,3-.94l18.09,10.43a4.2,4.2,0,0,0-.13.45l-25.65-.47Zm20.95-31.9a6.8,6.8,0,0,0,2.25-4.17l3.85,0,21.1.27a3.11,3.11,0,0,0,.7,1.28l-14,21.07a2.64,2.64,0,0,0-.79-.08,2.67,2.67,0,0,0-.49.08ZM109.59,58.71l5-3.8a1.72,1.72,0,0,0,1.74-.36l15.06,3.05Zm-1.72-.83v-.16l.17-2.24a1.51,1.51,0,0,0,.45-.41l3.63-.43Zm-1.54-2.28-.2,2.65a1.74,1.74,0,0,0-.79.68l-9.86.47ZM88.19,63.19a2.79,2.79,0,0,0,4-1.94l10.1-.48-20.78,9Zm16.72-1.7L102,66.71l-2.15,3.84a3.07,3.07,0,0,0-3.73,2.13l-14.84-.91Zm-34.31,27,1.64-6.63a1.48,1.48,0,0,0,.85-1.94l1.63-2.16ZM81.23,132a1.4,1.4,0,0,0-.26-.7l1.16,1.13L83.74,134Zm38.51,14.81a1.4,1.4,0,0,0-2.11.15l-5.66-.72,9.33.17Zm23.43-8.43a1.4,1.4,0,0,0-1,.57l-7.3,2.91,13.44-8.93Zm-5.35-.5-7.43,4.93a4.22,4.22,0,0,0-.55-.45l5-12.65a2.65,2.65,0,0,0,.34,0,2.67,2.67,0,0,0,2.36-1.78l13.94.83ZM154.67,124l-1.45-19.82a3.13,3.13,0,0,0,1.92-2.27l7.74-.5Z" transform="translate(-64.72 -51.52)"/><path class="cls-1" d="M162.73,125.63l8.71,10.56a4.34,4.34,0,0,1-.26,5.84l-18.11,17a4.34,4.34,0,0,1-5.85-.1l-10-9.35a58.12,58.12,0,0,0,25.51-24Z" transform="translate(-64.72 -51.52)"/><path class="cls-1" d="M172.22,143.39a5.49,5.49,0,0,1-1.1,6.36l-10.34,9.72A5.33,5.33,0,0,1,157,160.9a5.61,5.61,0,0,1-2.68-.72Z" transform="translate(-64.72 -51.52)"/><path class="cls-1" d="M189.84,105.17a1.52,1.52,0,0,1,1.52-1.52h49.77c2,0,2.89-1.69,2.89-5.07s-.92-5.07-2.89-5.07H203.82C194.12,93.5,187,84.4,187,73c0-11.05,6.93-20.67,16.87-20.67H253.6a1.52,1.52,0,0,1,1.52,1.52V66.36a1.52,1.52,0,0,1-1.52,1.52H203.82c-2,0-3,1.69-3,5.07s1,4.94,3,4.94h37.32c9.7,0,16.75,9.23,16.75,20.67s-7,20.68-16.75,20.68H191.37a1.52,1.52,0,0,1-1.52-1.52Z" transform="translate(-64.72 -51.52)"/><path class="cls-1" d="M267.82,52.28H280a1.54,1.54,0,0,1,1.31.73l23.28,37.41a.36.36,0,0,0,.6,0L328.57,53a1.54,1.54,0,0,1,1.3-.72h12.06a1.53,1.53,0,0,1,1.53,1.53v63.91a1.52,1.52,0,0,1-1.52,1.52H331.12a1.52,1.52,0,0,1-1.52-1.52V79.65a.35.35,0,0,0-.65-.19L305.17,117.6a.35.35,0,0,1-.6,0L280.8,79.46a.35.35,0,0,0-.65.19v38.08a1.52,1.52,0,0,1-1.52,1.52H267.81a1.52,1.52,0,0,1-1.52-1.52V53.82A1.53,1.53,0,0,1,267.82,52.28Z" transform="translate(-64.72 -51.52)"/><path class="cls-1" d="M354.66,73c0-11.05,6.7-20.67,16.75-20.67h39.28c9.94,0,16.87,9.62,16.87,20.67v44.77a1.52,1.52,0,0,1-1.52,1.52H415.22a1.52,1.52,0,0,1-1.52-1.52V99.46a1.53,1.53,0,0,0-1.53-1.53H370.06a1.53,1.53,0,0,0-1.53,1.53v18.27a1.52,1.52,0,0,1-1.52,1.52H356.18a1.52,1.52,0,0,1-1.52-1.52Zm57.5,9.36a1.53,1.53,0,0,0,1.53-1.53V73c0-3.38-1-5.07-3-5.07H371.41c-2,0-2.89,1.69-2.89,5.07v7.83a1.53,1.53,0,0,0,1.53,1.53Z" transform="translate(-64.72 -51.52)"/><path class="cls-1" d="M438.71,53.8a1.52,1.52,0,0,1,1.52-1.52h56.13c10.17,0,16.87,10,16.87,22.49s-6.7,22.5-16.87,22.5h-4.59a.35.35,0,0,0-.28.57L508,118.6a.4.4,0,0,1-.31.65H490.28a1.52,1.52,0,0,1-1.19-.57L472.21,97.4a.35.35,0,0,0-.27-.13H454.11a1.53,1.53,0,0,0-1.53,1.53v18.92a1.52,1.52,0,0,1-1.52,1.52H440.24a1.52,1.52,0,0,1-1.52-1.52Zm56.84,27.87c2.54,0,3.81-2.34,3.81-6.89s-1.27-6.89-3.81-6.89H454.11a1.53,1.53,0,0,0-1.53,1.53V80.14a1.53,1.53,0,0,0,1.53,1.53Z" transform="translate(-64.72 -51.52)"/><path class="cls-1" d="M545.66,67.88H521.92a1.52,1.52,0,0,1-1.52-1.52V53.81a1.52,1.52,0,0,1,1.52-1.52h64.42a1.52,1.52,0,0,1,1.52,1.52V66.36a1.52,1.52,0,0,1-1.52,1.52H562.59a1.53,1.53,0,0,0-1.53,1.53v48.3a1.53,1.53,0,0,1-1.53,1.53h-10.8a1.53,1.53,0,0,1-1.53-1.53V69.42A1.53,1.53,0,0,0,545.66,67.88Z" transform="translate(-64.72 -51.52)"/><path d="M255.4,161h-5.65V130.24h5.65Z" transform="translate(-64.72 -51.52)"/><path d="M275.93,161h-5.65V134.92h-9.73v-4.68h25.07v4.68h-9.69Z" transform="translate(-64.72 -51.52)"/><path d="M331.81,161h-6.25l-2.62-7.53h-12L308.21,161H302l11.71-31h6.52Zm-19.19-12.21h8.72L317,136.58Z" transform="translate(-64.72 -51.52)"/><path d="M350.72,156.92a31.06,31.06,0,0,0,4.91-.37,26.38,26.38,0,0,0,4.91-1.33l1,4.55a25.69,25.69,0,0,1-4.87,1.26,37.15,37.15,0,0,1-6,.44,20.22,20.22,0,0,1-7.39-1.24,14.81,14.81,0,0,1-5.28-3.4,14.23,14.23,0,0,1-3.19-5.05,17.45,17.45,0,0,1-1.08-6.15,17.14,17.14,0,0,1,1.08-6.08,14.52,14.52,0,0,1,3.19-5.05,14.92,14.92,0,0,1,5.28-3.44,19.9,19.9,0,0,1,7.39-1.26,30.53,30.53,0,0,1,5.92.53,33.33,33.33,0,0,1,4.82,1.31l-1,4.41a30.41,30.41,0,0,0-4.89-1.31,29,29,0,0,0-4.89-.39,12.79,12.79,0,0,0-4.55.78,10.35,10.35,0,0,0-3.58,2.25,10,10,0,0,0-2.34,3.56,12.69,12.69,0,0,0-.83,4.71,12.87,12.87,0,0,0,.83,4.73,9.74,9.74,0,0,0,2.34,3.56,10.5,10.5,0,0,0,3.58,2.23A12.77,12.77,0,0,0,350.72,156.92Z" transform="translate(-64.72 -51.52)"/><path d="M395.25,161H389l-2.62-7.53h-12L371.65,161H365.4l11.71-31h6.52Zm-19.19-12.21h8.72l-4.32-12.21Z" transform="translate(-64.72 -51.52)"/><path d="M399.86,161V130.24h10.51a21,21,0,0,1,7.37,1.19,14.79,14.79,0,0,1,5.3,3.28,13.75,13.75,0,0,1,3.19,4.89,16.6,16.6,0,0,1,1.08,6,16.91,16.91,0,0,1-1.08,6.08A13.48,13.48,0,0,1,423,156.6a14.7,14.7,0,0,1-5.3,3.24,21.34,21.34,0,0,1-7.37,1.17Zm10.51-4.68a14.31,14.31,0,0,0,4.55-.69,10,10,0,0,0,3.56-2,9,9,0,0,0,2.32-3.35,12.18,12.18,0,0,0,.83-4.64,11.83,11.83,0,0,0-.83-4.59,9.26,9.26,0,0,0-2.32-3.33,9.86,9.86,0,0,0-3.56-2,14.31,14.31,0,0,0-4.55-.69H405.5v21.35Z" transform="translate(-64.72 -51.52)"/><path d="M439.37,142.82h14v4.68h-14v8.82h16.3V161H433.72V130.24h21.72v4.68H439.37Z" transform="translate(-64.72 -51.52)"/><path d="M479.84,161H475.9l-8-19.84V161h-5.65V130.24h7.25l8.4,20.66,8.22-20.66h7.25V161h-5.65V141.17Z" transform="translate(-64.72 -51.52)"/><path d="M518.91,130.24h6.15l-10.84,20V161h-5.65V150.21l-10.61-20h6.15l7.48,14.46Z" transform="translate(-64.72 -51.52)"/></svg>